<svg height="512pt" viewBox="0 -8 512.032 512" width="512pt" xmlns="http://www.w3.org/2000/svg"><g fill="#8cc152"><path d="m504.015625 95.917969v24.082031c-13.28125 0-24-10.800781-24-24.082031zm0 0"/><path d="m376.015625 95.917969h24c0 13.28125-10.71875 24-24 24.082031zm0 0"/><path d="m376.015625 280c13.28125.078125 24 10.71875 24 24h-24zm0 0"/></g><path d="m480.015625 304h-104v48h128v-48zm0 0" fill="#a0d468"/><path d="m480.015625 304c0-13.28125 10.71875-24 24-24v24zm0 0" fill="#8cc152"/><path d="m504.015625 120v160c-13.28125 0-24 10.71875-24 24h-80c0-13.28125-10.71875-23.921875-24-24v-160c13.28125-.082031 24-10.800781 24-24.082031h80c0 13.28125 10.71875 24.082031 24 24.082031zm-32 80c0-17.683594-14.398437-32-32-32-17.679687 0-32 14.316406-32 32 0 17.679688 14.320313 32 32 32 17.601563 0 32-14.320312 32-32zm0 0" fill="#a0d468"/><path d="m440.015625 168c17.601563 0 32 14.316406 32 32 0 17.679688-14.398437 32-32 32-17.679687 0-32-14.320312-32-32 0-17.683594 14.320313-32 32-32zm0 0" fill="#8cc152"/><path d="m184.183594 48c13.191406 0 24 10.71875 24 24 0 13.277344-10.808594 24-24 24-13.28125 0-24-10.722656-24-24 0-13.28125 10.710937-24 24-24zm0 0" fill="#ffce54"/><path d="m72.015625 40 112-32h.167969l112 32 .082031.078125 31.75 47.921875-23.832031 40h-240.167969l-23.832031-40zm136.167969 32c0-13.28125-10.808594-24-24-24-13.28125 0-24 10.71875-24 24 0 13.277344 10.71875 24 24 24 13.191406 0 24-10.722656 24-24zm0 0" fill="#5d9cec"/><path d="m64.183594 128h240v40h-240zm0 0" fill="#545c66"/><path d="m64.183594 168h240s-.167969.636719-.640625 1.839844c-3.207031 7.917968-22.007813 38.238281-119.527344 38.238281-97.757813 0-116.160156-30.480469-119.28125-38.320313-.398437-1.121093-.550781-1.757812-.550781-1.757812zm0 0" fill="#656d78"/><path d="m64.734375 169.757812c3.121094 7.839844 21.523437 38.320313 119.28125 38.320313 97.519531 0 116.320313-30.320313 119.519531-38.230469l.480469.230469v45.921875c0 46-25.910156 86-64 106.15625-16.71875 8.800781-35.757813 13.84375-56 13.84375-20.230469 0-39.28125-5.042969-56-13.84375-38.078125-20.15625-64-60.15625-64-106.15625v-45.921875zm0 0" fill="#eac6bb"/><path d="m303.535156 169.839844c-1.566406 3.886718-6.941406 13.183594-23.542968 21.644531v24.515625c0 46-25.914063 86-64 106.15625-13.367188 7.042969-28.222657 11.617188-43.984376 13.195312 3.953126.390626 7.945313.648438 12.007813.648438 20.242187 0 39.28125-5.042969 56-13.84375 38.089844-20.15625 64-60.15625 64-106.15625v-45.921875zm0 0" fill="#d3b1a9"/><path d="m240.015625 322.15625v37.84375l-24 16-32-8-32 8-24-16v-37.84375c16.71875 8.800781 35.769531 13.84375 56 13.84375 20.242187 0 39.28125-5.042969 56-13.84375zm0 0" fill="#87bcf4"/><path d="m216.015625 376-23.832031 24h-16l-24.167969-24 32-8zm0 0" fill="#656d78"/><path d="m176.183594 400-16 88h-144.167969c-4.398437 0-8-3.601562-8-8v-56c0-35.363281 28.640625-64 64-64h56l24 16zm0 0" fill="#5d9cec"/><path d="m176.183594 400h16l15.832031 88h-47.832031zm0 0" fill="#545c66"/><path d="m360.015625 424v56c0 4.398438-3.511719 8-8 8h-144l-15.832031-88 23.832031-24 24-16h48c35.359375 0 72 28.636719 72 64zm-71.910156 7.917969c0-8.808594-7.203125-16-16-16-8.882813 0-16 7.191406-16 16 0 8.800781 7.117187 16 16 16 8.789062 0 16-7.199219 16-16zm0 0" fill="#5d9cec"/><path d="m288.015625 360h-24.023437c35.359374 0 72 28.636719 72 64v56c0 4.398438-3.511719 8-8 8h24.023437c4.488281 0 8-3.601562 8-8v-56c0-35.363281-36.640625-64-72-64zm0 0" fill="#4a89dc"/><path d="m272.105469 415.917969c8.796875 0 16 7.191406 16 16 0 8.800781-7.203125 16-16 16-8.882813 0-16-7.199219-16-16s7.109375-16 16-16zm0 0" fill="#ffce54"/><path d="m8 432c-4.425781 0-8-3.578125-8-8 0-39.707031 32.296875-72 72-72 4.425781 0 8 3.574219 8 8 0 4.421875-3.574219 8-8 8-30.871094 0-56 25.125-56 56 0 4.421875-3.574219 8-8 8zm0 0"/><path d="m360.015625 432.007812c-4.421875 0-8-3.578124-8-8 0-31.539062-34.40625-56-64.007813-56-4.421874 0-8-3.578124-8-8 0-4.425781 3.578126-8 8-8 37.769532 0 80.007813 30.789063 80.007813 72 0 4.421876-3.574219 8-8 8zm0 0"/><path d="m128.007812 368.007812-56.007812-.007812c-4.425781 0-8-3.585938-8-8 0-4.425781 3.585938-8 8-8l56.007812.007812c4.425782 0 8 3.582032 8 8 0 4.421876-3.582031 8-8 8zm0 0"/><path d="m288.007812 368.007812-48-.019531c-4.421874 0-8-3.582031-8-8 0-4.421875 3.585938-8 8-8l48 .019531c4.425782 0 8 3.582032 8 8 0 4.421876-3.582031 8-8 8zm0 0"/><path d="m8.007812 487.988281c-4.414062 0-7.9999995-3.574219-7.9999995-8l-.0078125-55.988281c0-4.417969 3.574219-8 8-8 4.414062 0 8 3.574219 8 8l.007812 55.988281c0 4.417969-3.574218 8-8 8zm0 0"/><path d="m16.007812 495.988281c-8.824218 0-15.9999995-7.175781-15.9999995-16 0-4.421875 3.5781255-8 7.9999995-8 4.425782 0 8 3.578125 8 8v.019531c4.425782 0 8 3.566407 8 7.992188 0 4.414062-3.574218 7.988281-8 7.988281zm0 0"/><path d="m352.015625 495.988281c-4.421875 0-8-3.574219-8-8 0-4.421875 3.578125-8 8-8h.015625c0-4.421875 3.570312-8 7.992188-8 4.417968 0 7.992187 3.578125 7.992187 8 0 8.824219-7.175781 16-16 16zm0 0"/><path d="m360.015625 487.988281c-4.421875 0-8-3.574219-8-8v-55.980469c0-4.425781 3.578125-8 8-8 4.425781 0 8 3.574219 8 8v55.980469c0 4.425781-3.574219 8-8 8zm0 0"/><path d="m352.015625 495.988281h-336.007813c-4.421874 0-8-3.574219-8-8 0-4.421875 3.578126-8 8-8h336.007813c4.425781 0 8 3.578125 8 8 0 4.425781-3.574219 8-8 8zm0 0"/><path d="m128.007812 368.007812c-4.421874 0-8-3.578124-8-8v-37.839843c0-4.425781 3.578126-8 8-8 4.425782 0 8 3.574219 8 8v37.839843c0 4.421876-3.574218 8-8 8zm0 0"/><path d="m240.007812 367.988281c-4.421874 0-8-3.574219-8-8v-37.832031c0-4.421875 3.578126-8 8-8 4.425782 0 8 3.578125 8 8v37.832031c0 4.425781-3.574218 8-8 8zm0 0"/><path d="m184.007812 344.007812c-70.574218 0-128-57.425781-128-128 0-4.425781 3.578126-8 8-8 4.425782 0 8 3.574219 8 8 0 61.757813 50.238282 112 112 112 61.761719 0 112-50.242187 112-112 0-4.425781 3.578126-8 8-8 4.425782 0 8 3.574219 8 8 0 70.574219-57.421874 128-128 128zm0 0"/><path d="m64.007812 224.007812c-4.421874 0-8-3.578124-8-8v-45.929687c0-4.425781 3.578126-8 8-8 4.425782 0 8 3.574219 8 8v45.929687c0 4.421876-3.574218 8-8 8zm0 0"/><path d="m304.007812 224.007812c-4.421874 0-8-3.578124-8-8v-45.882812c0-4.421875 3.578126-8 8-8 4.425782 0 8 3.578125 8 8v45.882812c0 4.421876-3.574218 8-8 8zm0 0"/><path d="m152 383.988281c-1.519531 0-3.0625-.4375-4.433594-1.34375l-24-15.984375c-3.671875-2.445312-4.671875-7.414062-2.214844-11.09375 2.449219-3.679687 7.402344-4.671875 11.097657-2.214844l24 15.984376c3.671875 2.445312 4.671875 7.414062 2.214843 11.09375-1.535156 2.3125-4.078124 3.558593-6.664062 3.558593zm0 0"/><path d="m152 383.988281c-3.585938 0-6.839844-2.421875-7.753906-6.0625-1.078125-4.289062 1.53125-8.625 5.824218-9.695312l32-7.992188c4.265626-1.097656 8.625 1.527344 9.699219 5.824219 1.078125 4.289062-1.53125 8.625-5.824219 9.695312l-32 7.992188c-.648437.160156-1.304687.238281-1.945312.238281zm0 0"/><path d="m216.015625 383.988281c-2.582031 0-5.128906-1.246093-6.664063-3.558593-2.457031-3.679688-1.457031-8.648438 2.214844-11.09375l24-15.984376c3.679688-2.457031 8.640625-1.464843 11.097656 2.214844 2.457032 3.679688 1.457032 8.648438-2.214843 11.09375l-24 15.984375c-1.371094.90625-2.914063 1.34375-4.433594 1.34375zm0 0"/><path d="m216.015625 383.988281c-.640625 0-1.296875-.078125-1.945313-.238281l-32-7.992188c-4.285156-1.070312-6.894531-5.40625-5.824218-9.695312 1.066406-4.289062 5.417968-6.921875 9.699218-5.824219l32 7.992188c4.285157 1.070312 6.894532 5.40625 5.824219 9.695312-.914062 3.632813-4.167969 6.0625-7.753906 6.0625zm0 0"/><path d="m320.039062 343.980469h-48.023437c-4.421875 0-8-3.574219-8-8 0-4.421875 3.578125-8 8-8h48.023437c4.425782 0 8 3.578125 8 8 0 4.425781-3.574218 8-8 8zm0 0"/><path d="m96.015625 343.980469h-48.023437c-4.425782 0-8-3.574219-8-8 0-4.421875 3.574218-8 8-8h48.023437c4.425781 0 8 3.578125 8 8 0 4.425781-3.574219 8-8 8zm0 0"/><path d="m184.007812 216.085938c-115.398437 0-126.808593-41.761719-127.71875-46.519532-.839843-4.335937 1.992188-8.527344 6.335938-9.367187 4.230469-.847657 8.375 1.886719 9.320312 6.101562.335938 1.105469 11.351563 33.792969 112.0625 33.792969 101.960938 0 112.230469-33.511719 112.328126-33.855469 1.136718-4.160156 5.375-6.832031 9.585937-5.832031 4.191406.984375 6.886719 4.984375 6.046875 9.207031-.945312 4.753907-12.601562 46.472657-127.960938 46.472657zm0 0"/><path d="m304.128906 176.046875h-239.984375c-4.425781 0-8-3.578125-8-8 0-4.425781 3.574219-8 8-8h239.984375c4.421875 0 8 3.574219 8 8 0 4.421875-3.585937 8-8 8zm0 0"/><path d="m304.128906 136.039062h-239.984375c-4.425781 0-8-3.578124-8-8 0-4.425781 3.574219-8 8-8h239.984375c4.421875 0 8 3.574219 8 8 0 4.421876-3.585937 8-8 8zm0 0"/><path d="m64.144531 176.046875c-4.425781 0-8-3.578125-8-8v-40.007813c0-4.425781 3.574219-8 8-8 4.421875 0 8 3.574219 8 8v40.007813c0 4.421875-3.585937 8-8 8zm0 0"/><path d="m304.136719 176.046875c-4.425781 0-8-3.578125-8-8v-40.007813c0-4.425781 3.574219-8 8-8 4.421875 0 8 3.574219 8 8v40.007813c0 4.421875-3.585938 8-8 8zm0 0"/><path d="m304.121094 136.039062c-1.394532 0-2.808594-.359374-4.089844-1.128906-3.800781-2.265625-5.039062-7.167968-2.785156-10.96875l23.859375-40.039062c2.261719-3.808594 7.167969-5.046875 10.964843-2.785156 3.800782 2.265624 5.042969 7.167968 2.785157 10.96875l-23.855469 40.039062c-1.496094 2.519531-4.152344 3.914062-6.878906 3.914062zm0 0"/><path d="m327.992188 96c-2.59375 0-5.136719-1.257812-6.671876-3.578125l-31.839843-47.984375c-2.449219-3.679688-1.441407-8.648438 2.238281-11.085938 3.679688-2.464843 8.640625-1.441406 11.089844 2.238282l31.839844 47.984375c2.449218 3.679687 1.441406 8.648437-2.242188 11.085937-1.359375.90625-2.894531 1.339844-4.414062 1.339844zm0 0"/><path d="m296.152344 48.015625c-.738282 0-1.472656-.105469-2.199219-.304687l-112.136719-32.007813c-4.25-1.21875-6.710937-5.640625-5.503906-9.890625 1.214844-4.253906 5.6875-6.664062 9.886719-5.503906l112.136719 32.007812c4.25 1.21875 6.710937 5.640625 5.503906 9.890625-1.007813 3.519531-4.214844 5.808594-7.6875 5.808594zm0 0"/><path d="m64.023438 136.039062c-2.726563 0-5.382813-1.394531-6.878907-3.90625l-23.855469-40.039062c-2.257812-3.800781-1.015624-8.703125 2.78125-10.96875 3.800782-2.261719 8.707032-1.023438 10.96875 2.785156l23.855469 40.039063c2.257813 3.800781 1.015625 8.703125-2.78125 10.96875-1.28125.761719-2.699219 1.121093-4.089843 1.121093zm0 0"/><path d="m40.152344 96c-1.511719 0-3.054688-.433594-4.417969-1.339844-3.679687-2.4375-4.6875-7.40625-2.238281-11.085937l31.839844-47.984375c2.433593-3.679688 7.398437-4.703125 11.089843-2.238282 3.679688 2.4375 4.6875 7.40625 2.238281 11.085938l-31.839843 47.984375c-1.542969 2.320313-4.082031 3.578125-6.671875 3.578125zm0 0"/><path d="m71.992188 48.015625c-3.480469 0-6.679688-2.289063-7.6875-5.808594-1.207032-4.25 1.246093-8.671875 5.503906-9.890625l112.128906-32.007812c4.207031-1.167969 8.671875 1.242187 9.886719 5.503906 1.207031 4.25-1.25 8.671875-5.503907 9.890625l-112.128906 32.007813c-.726562.199218-1.464844.304687-2.199218.304687zm0 0"/><path d="m184.136719 104c-17.648438 0-32-14.355469-32-32 0-17.648438 14.351562-32 32-32 17.648437 0 32 14.351562 32 32 0 17.644531-14.351563 32-32 32zm0-48c-8.824219 0-16 7.175781-16 16 0 8.820312 7.175781 16 16 16s16-7.179688 16-16c0-8.824219-7.183594-16-16-16zm0 0"/><path d="m176.136719 407.988281c-2.039063 0-4.082031-.773437-5.640625-2.328125l-24.128906-24c-3.136719-3.117187-3.152344-8.175781-.03125-11.308594 3.121093-3.128906 8.175781-3.152343 11.3125-.035156l24.128906 24c3.132812 3.121094 3.152344 8.175782.03125 11.3125-1.570313 1.570313-3.625 2.359375-5.671875 2.359375zm0 0"/><path d="m192.136719 407.988281c-2.039063 0-4.082031-.773437-5.640625-2.328125-3.136719-3.117187-3.152344-8.175781-.03125-11.308594l23.871094-24c3.121093-3.128906 8.175781-3.152343 11.3125-.035156 3.136718 3.121094 3.152343 8.175782.03125 11.3125l-23.871094 24c-1.570313 1.570313-3.625 2.359375-5.671875 2.359375zm0 0"/><path d="m192.136719 407.988281h-16c-4.425781 0-8-3.574219-8-8 0-4.421875 3.574219-8 8-8h16c4.421875 0 8 3.578125 8 8 0 4.425781-3.585938 8-8 8zm0 0"/><path d="m160.152344 495.988281c-.480469 0-.953125-.039062-1.441406-.125-4.351563-.800781-7.230469-4.960937-6.445313-9.304687l16-88c.78125-4.351563 4.957031-7.191406 9.292969-6.449219 4.351562.800781 7.234375 4.960937 6.441406 9.304687l-15.984375 88c-.703125 3.871094-4.070313 6.574219-7.863281 6.574219zm0 0"/><path d="m207.992188 495.988281c-3.800782 0-7.167969-2.710937-7.863282-6.574219l-15.863281-88c-.785156-4.351562 2.109375-8.503906 6.453125-9.296874 4.425781-.800782 8.503906 2.113281 9.296875 6.457031l15.863281 88c.785156 4.351562-2.109375 8.503906-6.453125 9.296875-.488281.078125-.960937.117187-1.433593.117187zm0 0"/><path d="m272.070312 455.933594c-13.230468 0-24-10.765625-24-24 0-13.230469 10.769532-24 24-24 13.234376 0 24 10.769531 24 24 0 13.234375-10.765624 24-24 24zm0-32c-4.414062 0-8 3.585937-8 8 0 4.417968 3.585938 8 8 8 4.417969 0 8-3.582032 8-8 0-4.414063-3.582031-8-8-8zm0 0"/><path d="m88.136719 80c-2.929688 0-5.746094-1.609375-7.152344-4.402344l-16.128906-31.984375c-1.992188-3.941406-.398438-8.757812 3.542969-10.742187 3.945312-2.015625 8.753906-.410156 10.746093 3.535156l16.128907 31.984375c1.992187 3.945313.40625 8.757813-3.539063 10.742187-1.167969.59375-2.390625.867188-3.597656.867188zm0 0"/><path d="m280.0625 80c-1.207031 0-2.4375-.273438-3.589844-.859375-3.945312-1.984375-5.527344-6.796875-3.535156-10.742187l16.125-31.984376c1.984375-3.945312 6.777344-5.550781 10.746094-3.535156 3.945312 1.984375 5.527344 6.800782 3.535156 10.742188l-16.128906 31.984375c-1.40625 2.785156-4.222656 4.394531-7.152344 4.394531zm0 0"/><path d="m504.007812 311.988281h-127.992187c-4.421875 0-8-3.574219-8-8v-208.046875c0-4.421875 3.578125-8 8-8h127.992187c4.425782 0 8 3.578125 8 8v208.046875c0 4.425781-3.574218 8-8 8zm-119.992187-16h111.992187v-192.046875h-111.992187zm0 0"/><path d="m375.976562 127.964844c-4.425781 0-8-3.574219-8-8 0-4.421875 3.574219-8 8-8 8.832032 0 16.023438-7.183594 16.023438-16.023438 0-4.421875 3.574219-8 8-8s8 3.578125 8 8c0 17.65625-14.367188 32.023438-32.023438 32.023438zm0 0"/><path d="m504.03125 127.964844c-17.65625 0-32.023438-14.367188-32.023438-32.023438 0-4.421875 3.578126-8 8-8 4.425782 0 8 3.578125 8 8 0 8.832032 7.183594 16.023438 16.023438 16.023438 4.425781 0 8 3.578125 8 8 0 4.425781-3.574219 8-8 8zm0 0"/><path d="m480.007812 312c-4.421874 0-8-3.578125-8-8 0-17.65625 14.367188-32.027344 32.023438-32.027344 4.425781 0 8 3.578125 8 8 0 4.425782-3.574219 8-8 8-8.832031 0-16.023438 7.183594-16.023438 16.027344 0 4.421875-3.574218 8-8 8zm0 0"/><path d="m400 312c-4.425781 0-8-3.578125-8-8 0-8.832031-7.183594-16.027344-16.023438-16.027344-4.425781 0-8-3.574218-8-8 0-4.421875 3.574219-8 8-8 17.65625 0 32.023438 14.371094 32.023438 32.027344 0 4.421875-3.574219 8-8 8zm0 0"/><path d="m440.007812 239.980469c-22.054687 0-40-17.941407-40-40 0-22.054688 17.945313-40 40-40 22.054688 0 40 17.945312 40 40 0 22.058593-17.945312 40-40 40zm0-64c-13.230468 0-24 10.769531-24 24 0 13.234375 10.769532 24 24 24 13.230469 0 24-10.765625 24-24 0-13.230469-10.769531-24-24-24zm0 0"/><path d="m376.015625 360c-4.421875 0-8-3.578125-8-8v-48.011719c0-4.421875 3.578125-8 8-8 4.425781 0 8 3.578125 8 8v48.011719c0 4.421875-3.574219 8-8 8zm0 0"/><path d="m504.007812 360h-127.992187c-4.421875 0-8-3.578125-8-8 0-4.425781 3.578125-8 8-8h127.992187c4.425782 0 8 3.574219 8 8 0 4.421875-3.574218 8-8 8zm0 0"/><path d="m504.007812 335.972656h-127.992187c-4.421875 0-8-3.574218-8-8 0-4.421875 3.578125-8 8-8h127.992187c4.425782 0 8 3.578125 8 8 0 4.425782-3.574218 8-8 8zm0 0"/><path d="m504.007812 360c-4.421874 0-8-3.578125-8-8v-48.011719c0-4.421875 3.578126-8 8-8 4.425782 0 8 3.578125 8 8v48.011719c0 4.421875-3.574218 8-8 8zm0 0"/><path d="m448.015625 439.972656c-4.421875 0-8-3.574218-8-8v-55.992187c0-4.421875 3.578125-8 8-8 4.425781 0 8 3.578125 8 8v55.992187c0 4.425782-3.574219 8-8 8zm0 0"/><path d="m448.015625 439.972656h-64.007813c-4.421874 0-8-3.574218-8-8 0-4.421875 3.578126-8 8-8h64.007813c4.425781 0 8 3.578125 8 8 0 4.425782-3.574219 8-8 8zm0 0"/><path d="m400.007812 455.972656c-2.046874 0-4.097656-.78125-5.65625-2.34375l-16-16c-3.128906-3.125-3.128906-8.183594 0-11.3125 3.128907-3.125 8.183594-3.125 11.3125 0l16 16c3.128907 3.128906 3.128907 8.1875 0 11.3125-1.558593 1.5625-3.609374 2.34375-5.65625 2.34375zm0 0"/><path d="m384.007812 439.972656c-2.046874 0-4.097656-.78125-5.65625-2.34375-3.128906-3.125-3.128906-8.183594 0-11.3125l16-16c3.128907-3.125 8.183594-3.125 11.3125 0 3.128907 3.128906 3.128907 8.1875 0 11.3125l-16 16c-1.558593 1.5625-3.609374 2.34375-5.65625 2.34375zm0 0"/></svg>